<svg xmlns="http://www.w3.org/2000/svg" viewBox="0 0 200 200"><defs><style>.cls-1{fill:#fff;}</style></defs><title>play-icn</title><g id="Layer_2" data-name="Layer 2"><g id="Layer_1-2" data-name="Layer 1"><path class="cls-1" d="M100,0A100,100,0,1,0,200,100,100,100,0,0,0,100,0Zm59.26,101.91L60.65,151.22a2.82,2.82,0,0,1-1,.24,2.31,2.31,0,0,1-1.19-.36,2.11,2.11,0,0,1-1-1.79V50.7a2.1,2.1,0,0,1,1-1.78,2,2,0,0,1,2.15-.12l98.61,49.3a2.14,2.14,0,0,1,1.19,1.91A2.12,2.12,0,0,1,159.26,101.91Z"/></g></g></svg>